<mxfile host="app.diagrams.net" modified="2024-05-14T03:34:07.657Z" agent="Mozilla/5.0 (Windows NT 10.0; Win64; x64) AppleWebKit/537.36 (KHTML, like Gecko) Chrome/124.0.0.0 Safari/537.36" version="24.4.0" etag="WEJsLPu-6Gt_yKgacr7V" type="github">
  <diagram name="Trang-1" id="l4zKJX-cNbb55mpwa3wT">
    <mxGraphModel>
      <root>
        <mxCell id="0" />
        <mxCell id="1" parent="0" />
      </root>
    </mxGraphModel>
  </diagram>
</mxfile>
